<?xml version="1.0" encoding="iso-8859-1"?>
<!-- Generator: Adobe Illustrator 19.0.0, SVG Export Plug-In . SVG Version: 6.00 Build 0)  -->
<svg version="1.1" id="Layer_1" xmlns="http://www.w3.org/2000/svg" xmlns:xlink="http://www.w3.org/1999/xlink" x="0px" y="0px"
	 viewBox="0 0 330 330" style="enable-background:new 0 0 330 330;" xml:space="preserve">
<g id="XMLID_2_">
	<path id="XMLID_4_" d="M315,90h-15v30v30v150H177.595H90H60v15c0,8.284,6.716,15,15,15h240c8.283,0,15-6.716,15-15V105
		C330,96.716,323.283,90,315,90z"/>
	<path id="XMLID_5_" d="M270,62.406V45c0-8.284-6.717-15-15-15h-55V15c0-8.284-6.717-15-15-15c-8.285,0-15,6.716-15,15v15h-70V15
		c0-8.284-6.716-15-15-15c-8.284,0-15,6.716-15,15v15H15C6.716,30,0,36.716,0,45v45h270V62.406z"/>
	<path id="XMLID_6_" d="M90,270h87.595H255c8.283,0,15-6.716,15-15V150v-30H0v135c0,8.284,6.716,15,15,15h33.02H60H90z"/>
</g>
<g>
</g>
<g>
</g>
<g>
</g>
<g>
</g>
<g>
</g>
<g>
</g>
<g>
</g>
<g>
</g>
<g>
</g>
<g>
</g>
<g>
</g>
<g>
</g>
<g>
</g>
<g>
</g>
<g>
</g>
</svg>
